<svg id="eXnFEip3bxd1" xmlns="http://www.w3.org/2000/svg" xmlns:xlink="http://www.w3.org/1999/xlink" viewBox="0 0 300 300" shape-rendering="geometricPrecision" text-rendering="geometricPrecision"><g><line x1="10.606328" y1="-27.576454" x2="-10.606328" y2="27.576454" transform="translate(142.708149 117.199929)" fill="none" stroke="#7b1e7a" stroke-width="3"/><line x1="10.606328" y1="-27.576454" x2="-10.606328" y2="27.576454" transform="matrix(-1.079214 0 0 1.015491 164.760975 117.627116)" fill="none" stroke="#7b1e7a" stroke-width="3"/><line x1="5.303164" y1="7.203459" x2="-5.303164" y2="-7.203458" transform="translate(137.404985 110.423657)" fill="none" stroke="#7b1e7a" stroke-width="3"/><line x1="-5.723249" y1="6.989865" x2="5.723249" y2="-6.989865" transform="translate(170.484224 110.210064)" fill="none" stroke="#7b1e7a" stroke-width="3"/><line x1="-10.606328" y1="-9.052207" x2="10.606328" y2="9.052207" transform="translate(142.708149 153.82859)" fill="none" stroke="#7b1e7a" stroke-width="3"/><line x1="11.446498" y1="-8.62502" x2="-11.446498" y2="8.62502" transform="translate(164.760975 154.255777)" fill="none" stroke="#7b1e7a" stroke-width="3"/><line x1="13.132697" y1="-23.3899" x2="-13.132697" y2="23.389901" transform="translate(118.969124 126.610099)" fill="none" stroke="#7b1e7a" stroke-width="3"/><line x1="-23.739025" y1="-6.440399" x2="23.739025" y2="6.440398" transform="translate(129.575452 156.440399)" fill="none" stroke="#7b1e7a" stroke-width="3"/><line x1="-13.05854" y1="-23.3899" x2="13.058541" y2="23.389901" transform="translate(189.266014 126.610099)" fill="none" stroke="#7b1e7a" stroke-width="3"/><line x1="-24.505039" y1="6.440398" x2="24.505039" y2="-6.440399" transform="translate(177.819516 156.440399)" fill="none" stroke="#7b1e7a" stroke-width="3"/></g><rect width="3.836201" height="2.611808" rx="0" ry="0" transform="matrix(.448997 0.247184-.271698 0.493525 104.510017 149.241417)" fill="#7b1e7a" stroke-width="0"/><rect width="3.836201" height="2.611808" rx="0" ry="0" transform="matrix(-.230474 0.575546-.603171-.241536 203.619308 149.246972)" fill="#7b1e7a" stroke-width="0"/><rect width="3.836201" height="2.611808" rx="0" ry="0" transform="matrix(.477778-.150169 0.205495 0.653802 130.632541 144.277381)" fill="#7b1e7a" stroke-width="0"/><rect width="3.836201" height="2.611808" rx="0" ry="0" transform="matrix(.478313 0.148455-.20315 0.654535 175.87418 144.55772)" fill="#7b1e7a" stroke-width="0"/><polygon points="0,-0.812158 0.772408,-0.250971 0.477374,0.657049 -0.477374,0.657049 -0.772408,-0.250971 0,-0.812158" transform="matrix(-.775778-.580629 0.581518-.776965 153.313204 163.693755)" fill="#7b1e7a" stroke-width="0"/><polygon points="0,-1.790792 1.703144,-0.553385 1.052601,1.448781 -1.052601,1.448781 -1.703144,-0.553385 0,-1.790792" transform="matrix(.762174 0 0 1.43402 132.127969 103.25239)" fill="#7b1e7a" stroke-width="0"/><polygon points="0,-1.790792 1.703144,-0.553385 1.052601,1.448781 -1.052601,1.448781 -1.703144,-0.553385 0,-1.790792" transform="matrix(.772685 0 0 1.43402 176.187069 103.303691)" fill="#7b1e7a" stroke-width="0"/><polygon points="0,-2.320139 2.206584,-0.716962 1.363744,1.877032 -1.363744,1.877032 -2.206584,-0.716962 0,-2.320139" transform="matrix(.657804 0 0 1.069101 153.372997 89.851313)" fill="#7b1e7a" stroke-width="0"/></svg>
